<svg xmlns="http://www.w3.org/2000/svg" viewBox="0 0 30 16"><rect width="30" height="16" style="fill:#fff"/><path d="M8.89,6.33,8.36,6l2.22-3.32L11.1,3Zm-.84-.56-.53-.35L9.74,2.09l.53.35Zm-.83-.55-.53-.35L8.91,1.54l.53.35Z"/><rect x="19.95" y="10.3" width="1.84" height="0.64" transform="translate(0.46 22.09) rotate(-56.31)"/><rect x="20.78" y="10.85" width="1.84" height="0.64" transform="matrix(0.55, -0.83, 0.83, 0.55, 0.37, 23.03)"/><rect x="21.62" y="11.41" width="1.84" height="0.64" transform="translate(0.28 23.98) rotate(-56.31)"/><rect x="18.75" y="12.09" width="1.84" height="0.64" transform="translate(-1.57 21.89) rotate(-56.31)"/><rect x="19.58" y="12.65" width="1.84" height="0.64" transform="matrix(0.55, -0.83, 0.83, 0.55, -1.66, 22.83)"/><rect x="20.41" y="13.2" width="1.84" height="0.64" transform="matrix(0.55, -0.83, 0.83, 0.55, -1.75, 23.77)"/><circle cx="15" cy="8" r="4" style="fill:#cd2e3a"/><path d="M11.67,5.78A2,2,0,1,0,15,8a2,2,0,0,1,3.33,2.22,4,4,0,1,1-6.66-4.44Z" style="fill:#0047a0"/><path d="M8.91,14.46,6.69,11.13l.53-.35,2.22,3.33Zm.83-.55L7.52,10.58l.53-.35,2.22,3.33Zm.84-.56L8.36,10l.53-.36L11.1,13Z"/><rect x="22.2" y="3.36" width="0.64" height="1.84" transform="translate(1.41 13.21) rotate(-33.69)"/><rect x="21.02" y="1.56" width="0.64" height="1.84" transform="translate(2.21 12.25) rotate(-33.69)"/><rect x="19.35" y="2.67" width="0.64" height="1.84" transform="translate(1.31 11.51) rotate(-33.69)"/><rect x="20.78" y="1.94" width="0.64" height="4" transform="translate(1.36 12.36) rotate(-33.69)"/><rect x="20.55" y="4.46" width="0.64" height="1.84" transform="translate(0.52 12.48) rotate(-33.69)"/></svg>
